<svg width="36" height="36" viewBox="0 0 36 36" fill="none" xmlns="http://www.w3.org/2000/svg">
  <path d="M10.8406 28C10.3766 28 9.9793 27.8368 9.64883 27.5104C9.31836 27.184 9 26.7917 9 26.3333V11H8.5C7.94772 11 7.5 10.5523 7.5 10C7.5 9.44772 7.94772 9 8.5 9H14.2875C14.2875 8.44772 14.7352 8 15.2875 8H20.7125C21.2648 8 21.7125 8.44772 21.7125 9H27.5C28.0523 9 28.5 9.44772 28.5 10C28.5 10.5523 28.0523 11 27.5 11H27V26.3333C27 26.7778 26.6781 27.1667 26.3406 27.5C26.0031 27.8333 25.6094 28 25.1594 28H10.8406ZM25 11H11V26H25V11ZM14 22.9618C14 23.5073 14.4371 23.9521 14.9825 23.9617C15.5415 23.9715 16 23.521 16 22.9618V13.9621C16 13.4167 15.5629 12.9719 15.0175 12.9623C14.4585 12.9525 14 13.403 14 13.9621V22.9618ZM20 22.9072C20 23.4668 20.4591 23.9174 21.0185 23.9071C21.5635 23.897 22 23.4523 22 22.9072V13.9631C22 13.4036 21.5409 12.9529 20.9815 12.9633C20.4365 12.9734 20 13.4181 20 13.9631V22.9072Z" fill="#304879"/>
</svg>
